<?xml version="1.0" encoding="iso-8859-1"?>
<!-- Uploaded to: SVG Repo, www.svgrepo.com, Generator: SVG Repo Mixer Tools -->
<svg version="1.1" id="Layer_1" xmlns="http://www.w3.org/2000/svg" xmlns:xlink="http://www.w3.org/1999/xlink" 
	 viewBox="0 0 512 512" xml:space="preserve">
<path style="fill:#808080;" d="M410.99,503.983H101.01c-8.855,0-16.033-7.179-16.033-16.033V24.05
	c0-8.855,7.179-16.033,16.033-16.033H410.99c8.855,0,16.033,7.179,16.033,16.033v463.9
	C427.023,496.805,419.844,503.983,410.99,503.983z"/>
<path style="fill:#666666;" d="M119.182,487.95V24.05c0-8.855,7.179-16.033,16.033-16.033H101.01
	c-8.855,0-16.033,7.179-16.033,16.033v463.9c0,8.855,7.179,16.033,16.033,16.033h34.205
	C126.36,503.983,119.182,496.805,119.182,487.95z"/>
<rect x="119.182" y="42.221" style="fill:#6DDAE1;" width="273.637" height="162.472"/>
<g>
	<polygon style="fill:#4FC4D3;" points="212.531,42.221 119.182,135.571 119.182,177.615 254.575,42.221 	"/>
	<polygon style="fill:#4FC4D3;" points="119.182,42.221 119.182,102.792 179.753,42.221 	"/>
	<polygon style="fill:#4FC4D3;" points="300.894,42.221 138.422,204.693 392.818,204.693 392.818,42.221 	"/>
</g>
<rect x="273.102" y="238.898" style="fill:#F8BE73;" width="119.716" height="102.614"/>
<rect x="289.136" y="254.931" style="fill:#FFD791;" width="87.649" height="70.547"/>
<rect x="119.182" y="238.898" style="fill:#F8BE73;" width="119.716" height="102.614"/>
<rect x="135.215" y="254.931" style="fill:#FFD791;" width="87.649" height="70.547"/>
<rect x="273.102" y="367.165" style="fill:#F8BE73;" width="119.716" height="102.614"/>
<rect x="289.136" y="383.198" style="fill:#FFD791;" width="87.649" height="70.547"/>
<rect x="119.182" y="367.165" style="fill:#F8BE73;" width="119.716" height="102.614"/>
<rect x="135.215" y="383.198" style="fill:#FFD791;" width="87.649" height="70.547"/>
<polygon style="fill:#FF8C78;" points="307.307,67.875 256,119.182 256,179.04 290.205,179.04 290.205,144.835 324.409,144.835 
	324.409,179.04 358.614,179.04 358.614,119.182 "/>
<polygon style="fill:#DF7A6E;" points="256,119.182 256,179.04 281.298,179.04 281.298,93.884 "/>
<path d="M427.023,111.165c-4.428,0-8.017,3.589-8.017,8.017V487.95c0,4.421-3.596,8.017-8.017,8.017H101.01
	c-4.421,0-8.017-3.596-8.017-8.017v-69.478c0-4.427-3.589-8.017-8.017-8.017c-4.427,0-8.017,3.589-8.017,8.017v69.478
	c0,13.262,10.788,24.05,24.05,24.05H410.99c13.261,0,24.05-10.788,24.05-24.05V119.182
	C435.04,114.754,431.451,111.165,427.023,111.165z"/>
<path d="M410.99,0H101.01C87.749,0,76.96,10.788,76.96,24.05v343.115c0,4.427,3.589,8.017,8.017,8.017
	c4.427,0,8.017-3.589,8.017-8.017V24.05c0-4.421,3.596-8.017,8.017-8.017H410.99c4.421,0,8.017,3.596,8.017,8.017v52.376
	c0,4.427,3.588,8.017,8.017,8.017s8.017-3.589,8.017-8.017V24.05C435.04,10.788,424.25,0,410.99,0z"/>
<path d="M400.835,42.221c0-4.427-3.588-8.017-8.017-8.017H119.182c-4.427,0-8.017,3.589-8.017,8.017v162.472
	c0,4.427,3.589,8.017,8.017,8.017h273.637c4.428,0,8.017-3.589,8.017-8.017V42.221z M384.802,196.676H127.198V50.238h257.603
	V196.676z"/>
<path d="M400.835,238.898c0-4.427-3.588-8.017-8.017-8.017H273.102c-4.428,0-8.017,3.589-8.017,8.017v102.614
	c0,4.427,3.588,8.017,8.017,8.017h119.716c4.428,0,8.017-3.589,8.017-8.017V238.898z M384.802,333.495H281.119v-86.58h103.683
	V333.495z"/>
<path d="M111.165,341.511c0,4.427,3.589,8.017,8.017,8.017h119.716c4.427,0,8.017-3.589,8.017-8.017V238.898
	c0-4.427-3.589-8.017-8.017-8.017H119.182c-4.427,0-8.017,3.589-8.017,8.017V341.511z M127.198,246.914h103.683v86.58H127.198
	V246.914z"/>
<path d="M392.818,359.148H273.102c-4.428,0-8.017,3.589-8.017,8.017v102.614c0,4.427,3.588,8.017,8.017,8.017h119.716
	c4.428,0,8.017-3.589,8.017-8.017V367.165C400.835,362.738,397.247,359.148,392.818,359.148z M384.802,461.762H281.119v-86.58
	h103.683V461.762z"/>
<path d="M111.165,469.779c0,4.427,3.589,8.017,8.017,8.017h119.716c4.427,0,8.017-3.589,8.017-8.017V367.165
	c0-4.427-3.589-8.017-8.017-8.017H119.182c-4.427,0-8.017,3.589-8.017,8.017V469.779z M127.198,375.182h103.683v86.58H127.198
	V375.182z"/>
<path d="M204.693,282.188h-17.637v-17.637c0-4.427-3.589-8.017-8.017-8.017s-8.017,3.589-8.017,8.017v17.637h-17.637
	c-4.427,0-8.017,3.589-8.017,8.017c0,4.427,3.589,8.017,8.017,8.017h17.637v17.637c0,4.427,3.589,8.017,8.017,8.017
	s8.017-3.589,8.017-8.017v-17.637h17.637c4.427,0,8.017-3.589,8.017-8.017C212.71,285.777,209.12,282.188,204.693,282.188z"/>
<path d="M307.307,298.221h51.307c4.428,0,8.017-3.589,8.017-8.017c0-4.427-3.588-8.017-8.017-8.017h-51.307
	c-4.428,0-8.017,3.589-8.017,8.017C299.29,294.632,302.878,298.221,307.307,298.221z"/>
<path d="M210.361,387.15c-3.131-3.131-8.207-3.131-11.337,0l-19.985,19.985l-19.985-19.985c-3.131-3.131-8.207-3.131-11.337,0
	c-3.131,3.131-3.131,8.207,0,11.337l19.985,19.985l-19.985,19.985c-2.919,2.918-3.113,7.74-0.426,10.877
	c2.998,3.501,8.502,3.721,11.763,0.46l19.985-19.985l19.985,19.985c3.261,3.261,8.765,3.041,11.763-0.46
	c2.687-3.137,2.493-7.959-0.426-10.877l-19.985-19.985l19.985-19.985C213.492,395.357,213.492,390.28,210.361,387.15z"/>
<path d="M307.307,452.142c2.051,0,4.103-0.782,5.669-2.348l51.307-51.307c3.131-3.131,3.131-8.207,0-11.337
	c-3.132-3.131-8.207-3.131-11.338,0l-51.307,51.307C296.699,443.395,300.296,452.142,307.307,452.142z"/>
<path d="M310.189,407.038c3.261,3.26,8.766,3.041,11.764-0.46c2.686-3.137,2.493-7.959-0.425-10.877l-8.551-8.551
	c-3.132-3.131-8.207-3.131-11.338,0s-3.131,8.207,0,11.337L310.189,407.038z"/>
<path d="M355.732,429.906c-3.132-3.131-8.207-3.131-11.338,0s-3.131,8.207,0,11.337l8.551,8.551c3.261,3.26,8.766,3.041,11.764-0.46
	c2.686-3.137,2.493-7.959-0.425-10.877L355.732,429.906z"/>
<path d="M256,187.056h34.205c4.428,0,8.017-3.589,8.017-8.017v-26.188h18.171v26.188c0,4.427,3.588,8.017,8.017,8.017h34.205
	c4.428,0,8.017-3.589,8.017-8.017v-59.858c0-2.126-0.844-4.165-2.347-5.668l-51.307-51.307c-3.132-3.131-8.207-3.131-11.338,0
	l-51.307,51.307c-1.504,1.503-2.348,3.542-2.348,5.668v59.858C247.983,183.467,251.573,187.056,256,187.056z M264.017,122.502
	l43.29-43.29l43.29,43.29v48.521h-18.171v-26.188c0-4.427-3.588-8.017-8.017-8.017h-34.205c-4.428,0-8.017,3.589-8.017,8.017v26.188
	h-18.171V122.502z"/>
</svg>